G04 #@! TF.GenerationSoftware,KiCad,Pcbnew,(5.1.0-0)*
G04 #@! TF.CreationDate,2019-03-29T19:36:46-04:00*
G04 #@! TF.ProjectId,K40 Panel Interface,4b343020-5061-46e6-956c-20496e746572,1.0*
G04 #@! TF.SameCoordinates,Original*
G04 #@! TF.FileFunction,Copper,L2,Bot*
G04 #@! TF.FilePolarity,Positive*
%FSLAX46Y46*%
G04 Gerber Fmt 4.6, Leading zero omitted, Abs format (unit mm)*
G04 Created by KiCad (PCBNEW (5.1.0-0)) date 2019-03-29 19:36:46*
%MOMM*%
%LPD*%
G04 APERTURE LIST*
%ADD10O,1.700000X1.700000*%
%ADD11R,1.700000X1.700000*%
%ADD12C,1.600000*%
%ADD13C,0.250000*%
%ADD14C,0.254000*%
G04 APERTURE END LIST*
D10*
X97790000Y-118110000D03*
X97790000Y-115570000D03*
D11*
X97790000Y-113030000D03*
D10*
X97790000Y-105410000D03*
X97790000Y-102870000D03*
X97790000Y-100330000D03*
X97790000Y-97790000D03*
D11*
X97790000Y-95250000D03*
X119380000Y-109220000D03*
D10*
X119380000Y-106680000D03*
X119380000Y-86360000D03*
D11*
X119380000Y-88900000D03*
X106680000Y-118110000D03*
D10*
X109220000Y-118110000D03*
X113030000Y-74930000D03*
D11*
X110490000Y-74930000D03*
D10*
X97790000Y-87630000D03*
X97790000Y-85090000D03*
X97790000Y-82550000D03*
D11*
X97790000Y-80010000D03*
D10*
X101600000Y-74930000D03*
D11*
X104140000Y-74930000D03*
X119380000Y-96520000D03*
D10*
X119380000Y-99060000D03*
D12*
X109220000Y-99060000D03*
X109220000Y-104140000D03*
X110490000Y-81280000D03*
X110490000Y-86360000D03*
D13*
X97790000Y-95250000D02*
X97790000Y-87630000D01*
X109220000Y-99060000D02*
X119380000Y-99060000D01*
X97790000Y-118110000D02*
X105410000Y-110490000D01*
X105410000Y-102870000D02*
X109220000Y-99060000D01*
X105410000Y-110490000D02*
X105410000Y-102870000D01*
X105410000Y-95250000D02*
X109220000Y-99060000D01*
X97790000Y-95250000D02*
X105410000Y-95250000D01*
X102870000Y-97790000D02*
X97790000Y-97790000D01*
X104140000Y-99060000D02*
X102870000Y-97790000D01*
X104140000Y-110490000D02*
X104140000Y-99060000D01*
X99060000Y-115570000D02*
X104140000Y-110490000D01*
X97790000Y-115570000D02*
X99060000Y-115570000D01*
X119380000Y-86360000D02*
X120650000Y-86360000D01*
X119380000Y-86360000D02*
X116840000Y-88900000D01*
X116840000Y-88900000D02*
X116840000Y-95250000D01*
X118110000Y-96520000D02*
X119380000Y-96520000D01*
X116840000Y-95250000D02*
X118110000Y-96520000D01*
X101600000Y-100330000D02*
X97790000Y-100330000D01*
X102870000Y-101600000D02*
X101600000Y-100330000D01*
X102870000Y-110490000D02*
X102870000Y-101600000D01*
X100330000Y-113030000D02*
X102870000Y-110490000D01*
X97790000Y-113030000D02*
X100330000Y-113030000D01*
X107950000Y-83820000D02*
X116840000Y-83820000D01*
X106680000Y-82550000D02*
X107950000Y-83820000D01*
X106680000Y-73660000D02*
X106680000Y-82550000D01*
X105410000Y-72390000D02*
X106680000Y-73660000D01*
X100330000Y-72390000D02*
X105410000Y-72390000D01*
X116840000Y-83820000D02*
X119380000Y-86360000D01*
X93980000Y-78740000D02*
X100330000Y-72390000D01*
X97790000Y-100330000D02*
X96520000Y-100330000D01*
X93980000Y-97790000D02*
X93980000Y-78740000D01*
X96520000Y-100330000D02*
X93980000Y-97790000D01*
X119380000Y-113030000D02*
X119380000Y-109220000D01*
X96069990Y-118929990D02*
X96069990Y-112210010D01*
X97790000Y-110490000D02*
X97790000Y-105410000D01*
X96069990Y-112210010D02*
X97790000Y-110490000D01*
X96069990Y-118929990D02*
X96520000Y-119380000D01*
X105580000Y-118110000D02*
X106680000Y-118110000D01*
X104310000Y-119380000D02*
X105580000Y-118110000D01*
X96520000Y-119380000D02*
X104310000Y-119380000D01*
X106680000Y-119210000D02*
X106680000Y-118110000D01*
X106755001Y-119285001D02*
X106680000Y-119210000D01*
X113124999Y-119285001D02*
X106755001Y-119285001D01*
X119380000Y-113030000D02*
X113124999Y-119285001D01*
X110490000Y-74930000D02*
X110490000Y-81280000D01*
X110490000Y-73830000D02*
X110490000Y-74930000D01*
X111110010Y-73209990D02*
X110490000Y-73830000D01*
X113849990Y-73209990D02*
X111110010Y-73209990D01*
X114300000Y-73660000D02*
X113849990Y-73209990D01*
X119830010Y-84270010D02*
X119830009Y-81093599D01*
X121920000Y-86360000D02*
X119830010Y-84270010D01*
X123190000Y-90803590D02*
X121920000Y-89533590D01*
X123190000Y-110490000D02*
X123190000Y-90803590D01*
X96520000Y-102870000D02*
X95250000Y-104140000D01*
X121920000Y-89533590D02*
X121920000Y-86360000D01*
X95250000Y-104140000D02*
X95250000Y-119380000D01*
X119830009Y-81093599D02*
X114300000Y-75563590D01*
X114300000Y-75563590D02*
X114300000Y-73660000D01*
X97790000Y-102870000D02*
X96520000Y-102870000D01*
X95250000Y-119380000D02*
X96520000Y-120650000D01*
X96520000Y-120650000D02*
X110490000Y-120650000D01*
X110490000Y-120650000D02*
X113030000Y-120650000D01*
X113030000Y-120650000D02*
X123190000Y-110490000D01*
X119380000Y-106680000D02*
X121920000Y-104140000D01*
X121920000Y-104140000D02*
X121920000Y-90170000D01*
X120650000Y-88900000D02*
X119380000Y-88900000D01*
X121920000Y-90170000D02*
X120650000Y-88900000D01*
X109220000Y-118110000D02*
X109220000Y-104140000D01*
X109220000Y-85090000D02*
X110490000Y-86360000D01*
X97790000Y-85090000D02*
X109220000Y-85090000D01*
X97790000Y-82550000D02*
X101600000Y-82550000D01*
X104140000Y-80010000D02*
X104140000Y-74930000D01*
X101600000Y-82550000D02*
X104140000Y-80010000D01*
X101600000Y-74930000D02*
X99060000Y-74930000D01*
X97790000Y-76200000D02*
X97790000Y-80010000D01*
X99060000Y-74930000D02*
X97790000Y-76200000D01*
D14*
G36*
X123698000Y-90236788D02*
G01*
X122680000Y-89218789D01*
X122680000Y-86397322D01*
X122683676Y-86359999D01*
X122680000Y-86322676D01*
X122680000Y-86322667D01*
X122669003Y-86211014D01*
X122625546Y-86067753D01*
X122554974Y-85935724D01*
X122460001Y-85819999D01*
X122431003Y-85796201D01*
X120590010Y-83955209D01*
X120590008Y-81130934D01*
X120593685Y-81093599D01*
X120579012Y-80944613D01*
X120535555Y-80801352D01*
X120464983Y-80669323D01*
X120393808Y-80582596D01*
X120393803Y-80582591D01*
X120370009Y-80553598D01*
X120341016Y-80529804D01*
X115060000Y-75248789D01*
X115060000Y-74709872D01*
X118415000Y-74709872D01*
X118415000Y-75150128D01*
X118500890Y-75581925D01*
X118669369Y-75988669D01*
X118913962Y-76354729D01*
X119225271Y-76666038D01*
X119591331Y-76910631D01*
X119998075Y-77079110D01*
X120429872Y-77165000D01*
X120870128Y-77165000D01*
X121301925Y-77079110D01*
X121708669Y-76910631D01*
X122074729Y-76666038D01*
X122386038Y-76354729D01*
X122630631Y-75988669D01*
X122799110Y-75581925D01*
X122885000Y-75150128D01*
X122885000Y-74709872D01*
X122799110Y-74278075D01*
X122630631Y-73871331D01*
X122386038Y-73505271D01*
X122074729Y-73193962D01*
X121708669Y-72949369D01*
X121301925Y-72780890D01*
X120870128Y-72695000D01*
X120429872Y-72695000D01*
X119998075Y-72780890D01*
X119591331Y-72949369D01*
X119225271Y-73193962D01*
X118913962Y-73505271D01*
X118669369Y-73871331D01*
X118500890Y-74278075D01*
X118415000Y-74709872D01*
X115060000Y-74709872D01*
X115060000Y-73697322D01*
X115063676Y-73659999D01*
X115060000Y-73622676D01*
X115060000Y-73622667D01*
X115049003Y-73511014D01*
X115005546Y-73367753D01*
X114934974Y-73235724D01*
X114840001Y-73119999D01*
X114810997Y-73096196D01*
X114413794Y-72698993D01*
X114389991Y-72669989D01*
X114274266Y-72575016D01*
X114142237Y-72504444D01*
X113998976Y-72460987D01*
X113887323Y-72449990D01*
X113887312Y-72449990D01*
X113849990Y-72446314D01*
X113812668Y-72449990D01*
X111147343Y-72449990D01*
X111110010Y-72446313D01*
X111072677Y-72449990D01*
X110961024Y-72460987D01*
X110817763Y-72504444D01*
X110685734Y-72575016D01*
X110570009Y-72669989D01*
X110546210Y-72698988D01*
X109979002Y-73266197D01*
X109949999Y-73289999D01*
X109894871Y-73357174D01*
X109855026Y-73405724D01*
X109835674Y-73441928D01*
X109640000Y-73441928D01*
X109515518Y-73454188D01*
X109395820Y-73490498D01*
X109285506Y-73549463D01*
X109188815Y-73628815D01*
X109109463Y-73725506D01*
X109050498Y-73835820D01*
X109014188Y-73955518D01*
X109001928Y-74080000D01*
X109001928Y-75780000D01*
X109014188Y-75904482D01*
X109050498Y-76024180D01*
X109109463Y-76134494D01*
X109188815Y-76231185D01*
X109285506Y-76310537D01*
X109395820Y-76369502D01*
X109515518Y-76405812D01*
X109640000Y-76418072D01*
X109730000Y-76418072D01*
X109730001Y-80061956D01*
X109575241Y-80165363D01*
X109375363Y-80365241D01*
X109218320Y-80600273D01*
X109110147Y-80861426D01*
X109055000Y-81138665D01*
X109055000Y-81421335D01*
X109110147Y-81698574D01*
X109218320Y-81959727D01*
X109375363Y-82194759D01*
X109575241Y-82394637D01*
X109810273Y-82551680D01*
X110071426Y-82659853D01*
X110348665Y-82715000D01*
X110631335Y-82715000D01*
X110908574Y-82659853D01*
X111169727Y-82551680D01*
X111404759Y-82394637D01*
X111604637Y-82194759D01*
X111761680Y-81959727D01*
X111869853Y-81698574D01*
X111925000Y-81421335D01*
X111925000Y-81138665D01*
X111869853Y-80861426D01*
X111761680Y-80600273D01*
X111604637Y-80365241D01*
X111404759Y-80165363D01*
X111250000Y-80061957D01*
X111250000Y-76418072D01*
X111340000Y-76418072D01*
X111464482Y-76405812D01*
X111584180Y-76369502D01*
X111694494Y-76310537D01*
X111791185Y-76231185D01*
X111870537Y-76134494D01*
X111929502Y-76024180D01*
X111953966Y-75943534D01*
X112029731Y-76027588D01*
X112263080Y-76201641D01*
X112525901Y-76326825D01*
X112673110Y-76371476D01*
X112903000Y-76250155D01*
X112903000Y-75057000D01*
X112883000Y-75057000D01*
X112883000Y-74803000D01*
X112903000Y-74803000D01*
X112903000Y-74783000D01*
X113157000Y-74783000D01*
X113157000Y-74803000D01*
X113177000Y-74803000D01*
X113177000Y-75057000D01*
X113157000Y-75057000D01*
X113157000Y-76250155D01*
X113386890Y-76371476D01*
X113534099Y-76326825D01*
X113796920Y-76201641D01*
X113834912Y-76173303D01*
X119070009Y-81408401D01*
X119070011Y-84232678D01*
X119066334Y-84270010D01*
X119070011Y-84307342D01*
X119070011Y-84307343D01*
X119071881Y-84326324D01*
X119081008Y-84418995D01*
X119124464Y-84562256D01*
X119195036Y-84694286D01*
X119266211Y-84781012D01*
X119290010Y-84810011D01*
X119319008Y-84833809D01*
X119360199Y-84875000D01*
X119252998Y-84875000D01*
X119252998Y-85039185D01*
X119023109Y-84918519D01*
X118748748Y-85015843D01*
X118498645Y-85164822D01*
X118282412Y-85359731D01*
X118108359Y-85593080D01*
X117983175Y-85855901D01*
X117938524Y-86003110D01*
X118059845Y-86233000D01*
X119253000Y-86233000D01*
X119253000Y-86213000D01*
X119507000Y-86213000D01*
X119507000Y-86233000D01*
X119527000Y-86233000D01*
X119527000Y-86487000D01*
X119507000Y-86487000D01*
X119507000Y-86507000D01*
X119253000Y-86507000D01*
X119253000Y-86487000D01*
X118059845Y-86487000D01*
X117938524Y-86716890D01*
X117983175Y-86864099D01*
X118108359Y-87126920D01*
X118282412Y-87360269D01*
X118366466Y-87436034D01*
X118285820Y-87460498D01*
X118175506Y-87519463D01*
X118078815Y-87598815D01*
X117999463Y-87695506D01*
X117940498Y-87805820D01*
X117904188Y-87925518D01*
X117891928Y-88050000D01*
X117891928Y-89750000D01*
X117904188Y-89874482D01*
X117940498Y-89994180D01*
X117999463Y-90104494D01*
X118078815Y-90201185D01*
X118175506Y-90280537D01*
X118285820Y-90339502D01*
X118405518Y-90375812D01*
X118530000Y-90388072D01*
X120230000Y-90388072D01*
X120354482Y-90375812D01*
X120474180Y-90339502D01*
X120584494Y-90280537D01*
X120681185Y-90201185D01*
X120760537Y-90104494D01*
X120767209Y-90092011D01*
X121160001Y-90484803D01*
X121160000Y-103825197D01*
X119745995Y-105239203D01*
X119671111Y-105216487D01*
X119452950Y-105195000D01*
X119307050Y-105195000D01*
X119088889Y-105216487D01*
X118808966Y-105301401D01*
X118550986Y-105439294D01*
X118324866Y-105624866D01*
X118139294Y-105850986D01*
X118001401Y-106108966D01*
X117916487Y-106388889D01*
X117887815Y-106680000D01*
X117916487Y-106971111D01*
X118001401Y-107251034D01*
X118139294Y-107509014D01*
X118324866Y-107735134D01*
X118354687Y-107759607D01*
X118285820Y-107780498D01*
X118175506Y-107839463D01*
X118078815Y-107918815D01*
X117999463Y-108015506D01*
X117940498Y-108125820D01*
X117904188Y-108245518D01*
X117891928Y-108370000D01*
X117891928Y-110070000D01*
X117904188Y-110194482D01*
X117940498Y-110314180D01*
X117999463Y-110424494D01*
X118078815Y-110521185D01*
X118175506Y-110600537D01*
X118285820Y-110659502D01*
X118405518Y-110695812D01*
X118530000Y-110708072D01*
X118620001Y-110708072D01*
X118620000Y-112715198D01*
X112810198Y-118525001D01*
X110645931Y-118525001D01*
X110683513Y-118401111D01*
X110712185Y-118110000D01*
X110683513Y-117818889D01*
X110598599Y-117538966D01*
X110460706Y-117280986D01*
X110275134Y-117054866D01*
X110049014Y-116869294D01*
X109980000Y-116832405D01*
X109980000Y-105358043D01*
X110134759Y-105254637D01*
X110334637Y-105054759D01*
X110491680Y-104819727D01*
X110599853Y-104558574D01*
X110655000Y-104281335D01*
X110655000Y-103998665D01*
X110599853Y-103721426D01*
X110491680Y-103460273D01*
X110334637Y-103225241D01*
X110134759Y-103025363D01*
X109899727Y-102868320D01*
X109638574Y-102760147D01*
X109361335Y-102705000D01*
X109078665Y-102705000D01*
X108801426Y-102760147D01*
X108540273Y-102868320D01*
X108305241Y-103025363D01*
X108105363Y-103225241D01*
X107948320Y-103460273D01*
X107840147Y-103721426D01*
X107785000Y-103998665D01*
X107785000Y-104281335D01*
X107840147Y-104558574D01*
X107948320Y-104819727D01*
X108105363Y-105054759D01*
X108305241Y-105254637D01*
X108460001Y-105358044D01*
X108460000Y-116832405D01*
X108390986Y-116869294D01*
X108164866Y-117054866D01*
X108140393Y-117084687D01*
X108119502Y-117015820D01*
X108060537Y-116905506D01*
X107981185Y-116808815D01*
X107884494Y-116729463D01*
X107774180Y-116670498D01*
X107654482Y-116634188D01*
X107530000Y-116621928D01*
X105830000Y-116621928D01*
X105705518Y-116634188D01*
X105585820Y-116670498D01*
X105475506Y-116729463D01*
X105378815Y-116808815D01*
X105299463Y-116905506D01*
X105240498Y-117015820D01*
X105204188Y-117135518D01*
X105191928Y-117260000D01*
X105191928Y-117455674D01*
X105155724Y-117475026D01*
X105039999Y-117569999D01*
X105016201Y-117598997D01*
X103995199Y-118620000D01*
X99187114Y-118620000D01*
X99253513Y-118401111D01*
X99282185Y-118110000D01*
X99253513Y-117818889D01*
X99230797Y-117744004D01*
X105921004Y-111053798D01*
X105950001Y-111030001D01*
X106044974Y-110914276D01*
X106115546Y-110782247D01*
X106159003Y-110638986D01*
X106170000Y-110527333D01*
X106170000Y-110527324D01*
X106173676Y-110490001D01*
X106170000Y-110452678D01*
X106170000Y-103184801D01*
X108896114Y-100458688D01*
X109078665Y-100495000D01*
X109361335Y-100495000D01*
X109638574Y-100439853D01*
X109899727Y-100331680D01*
X110134759Y-100174637D01*
X110334637Y-99974759D01*
X110438043Y-99820000D01*
X118102405Y-99820000D01*
X118139294Y-99889014D01*
X118324866Y-100115134D01*
X118550986Y-100300706D01*
X118808966Y-100438599D01*
X119088889Y-100523513D01*
X119307050Y-100545000D01*
X119452950Y-100545000D01*
X119671111Y-100523513D01*
X119951034Y-100438599D01*
X120209014Y-100300706D01*
X120435134Y-100115134D01*
X120620706Y-99889014D01*
X120758599Y-99631034D01*
X120843513Y-99351111D01*
X120872185Y-99060000D01*
X120843513Y-98768889D01*
X120758599Y-98488966D01*
X120620706Y-98230986D01*
X120435134Y-98004866D01*
X120405313Y-97980393D01*
X120474180Y-97959502D01*
X120584494Y-97900537D01*
X120681185Y-97821185D01*
X120760537Y-97724494D01*
X120819502Y-97614180D01*
X120855812Y-97494482D01*
X120868072Y-97370000D01*
X120865000Y-96805750D01*
X120706250Y-96647000D01*
X119507000Y-96647000D01*
X119507000Y-96667000D01*
X119253000Y-96667000D01*
X119253000Y-96647000D01*
X118053750Y-96647000D01*
X117895000Y-96805750D01*
X117891928Y-97370000D01*
X117904188Y-97494482D01*
X117940498Y-97614180D01*
X117999463Y-97724494D01*
X118078815Y-97821185D01*
X118175506Y-97900537D01*
X118285820Y-97959502D01*
X118354687Y-97980393D01*
X118324866Y-98004866D01*
X118139294Y-98230986D01*
X118102405Y-98300000D01*
X110438043Y-98300000D01*
X110334637Y-98145241D01*
X110134759Y-97945363D01*
X109899727Y-97788320D01*
X109638574Y-97680147D01*
X109361335Y-97625000D01*
X109078665Y-97625000D01*
X108896114Y-97661312D01*
X106904802Y-95670000D01*
X117891928Y-95670000D01*
X117895000Y-96234250D01*
X118053750Y-96393000D01*
X119253000Y-96393000D01*
X119253000Y-95193750D01*
X119507000Y-95193750D01*
X119507000Y-96393000D01*
X120706250Y-96393000D01*
X120865000Y-96234250D01*
X120868072Y-95670000D01*
X120855812Y-95545518D01*
X120819502Y-95425820D01*
X120760537Y-95315506D01*
X120681185Y-95218815D01*
X120584494Y-95139463D01*
X120474180Y-95080498D01*
X120354482Y-95044188D01*
X120230000Y-95031928D01*
X119665750Y-95035000D01*
X119507000Y-95193750D01*
X119253000Y-95193750D01*
X119094250Y-95035000D01*
X118530000Y-95031928D01*
X118405518Y-95044188D01*
X118285820Y-95080498D01*
X118175506Y-95139463D01*
X118078815Y-95218815D01*
X117999463Y-95315506D01*
X117940498Y-95425820D01*
X117904188Y-95545518D01*
X117891928Y-95670000D01*
X106904802Y-95670000D01*
X105973804Y-94739003D01*
X105950001Y-94709999D01*
X105834276Y-94615026D01*
X105702247Y-94544454D01*
X105558986Y-94500997D01*
X105447333Y-94490000D01*
X105447322Y-94490000D01*
X105410000Y-94486324D01*
X105372678Y-94490000D01*
X99278072Y-94490000D01*
X99278072Y-94400000D01*
X99265812Y-94275518D01*
X99229502Y-94155820D01*
X99170537Y-94045506D01*
X99091185Y-93948815D01*
X98994494Y-93869463D01*
X98884180Y-93810498D01*
X98764482Y-93774188D01*
X98640000Y-93761928D01*
X98550000Y-93761928D01*
X98550000Y-88907595D01*
X98619014Y-88870706D01*
X98845134Y-88685134D01*
X99030706Y-88459014D01*
X99168599Y-88201034D01*
X99253513Y-87921111D01*
X99282185Y-87630000D01*
X99253513Y-87338889D01*
X99168599Y-87058966D01*
X99030706Y-86800986D01*
X98845134Y-86574866D01*
X98619014Y-86389294D01*
X98564209Y-86360000D01*
X98619014Y-86330706D01*
X98845134Y-86145134D01*
X99030706Y-85919014D01*
X99067595Y-85850000D01*
X108905199Y-85850000D01*
X109091312Y-86036114D01*
X109055000Y-86218665D01*
X109055000Y-86501335D01*
X109110147Y-86778574D01*
X109218320Y-87039727D01*
X109375363Y-87274759D01*
X109575241Y-87474637D01*
X109810273Y-87631680D01*
X110071426Y-87739853D01*
X110348665Y-87795000D01*
X110631335Y-87795000D01*
X110908574Y-87739853D01*
X111169727Y-87631680D01*
X111404759Y-87474637D01*
X111604637Y-87274759D01*
X111761680Y-87039727D01*
X111869853Y-86778574D01*
X111925000Y-86501335D01*
X111925000Y-86218665D01*
X111869853Y-85941426D01*
X111761680Y-85680273D01*
X111604637Y-85445241D01*
X111404759Y-85245363D01*
X111169727Y-85088320D01*
X110908574Y-84980147D01*
X110631335Y-84925000D01*
X110348665Y-84925000D01*
X110166114Y-84961312D01*
X109783804Y-84579003D01*
X109760001Y-84549999D01*
X109644276Y-84455026D01*
X109512247Y-84384454D01*
X109368986Y-84340997D01*
X109257333Y-84330000D01*
X109257322Y-84330000D01*
X109220000Y-84326324D01*
X109182678Y-84330000D01*
X99067595Y-84330000D01*
X99030706Y-84260986D01*
X98845134Y-84034866D01*
X98619014Y-83849294D01*
X98564209Y-83820000D01*
X98619014Y-83790706D01*
X98845134Y-83605134D01*
X99030706Y-83379014D01*
X99067595Y-83310000D01*
X101562678Y-83310000D01*
X101600000Y-83313676D01*
X101637322Y-83310000D01*
X101637333Y-83310000D01*
X101748986Y-83299003D01*
X101892247Y-83255546D01*
X102024276Y-83184974D01*
X102140001Y-83090001D01*
X102163804Y-83060997D01*
X104651009Y-80573794D01*
X104680001Y-80550001D01*
X104703795Y-80521008D01*
X104703799Y-80521004D01*
X104774973Y-80434277D01*
X104774974Y-80434276D01*
X104845546Y-80302247D01*
X104889003Y-80158986D01*
X104900000Y-80047333D01*
X104900000Y-80047324D01*
X104903676Y-80010001D01*
X104900000Y-79972678D01*
X104900000Y-76418072D01*
X104990000Y-76418072D01*
X105114482Y-76405812D01*
X105234180Y-76369502D01*
X105344494Y-76310537D01*
X105441185Y-76231185D01*
X105520537Y-76134494D01*
X105579502Y-76024180D01*
X105615812Y-75904482D01*
X105628072Y-75780000D01*
X105628072Y-74080000D01*
X105615812Y-73955518D01*
X105579502Y-73835820D01*
X105520537Y-73725506D01*
X105441185Y-73628815D01*
X105344494Y-73549463D01*
X105234180Y-73490498D01*
X105114482Y-73454188D01*
X104990000Y-73441928D01*
X103290000Y-73441928D01*
X103165518Y-73454188D01*
X103045820Y-73490498D01*
X102935506Y-73549463D01*
X102838815Y-73628815D01*
X102759463Y-73725506D01*
X102700498Y-73835820D01*
X102679607Y-73904687D01*
X102655134Y-73874866D01*
X102429014Y-73689294D01*
X102171034Y-73551401D01*
X101891111Y-73466487D01*
X101672950Y-73445000D01*
X101527050Y-73445000D01*
X101308889Y-73466487D01*
X101028966Y-73551401D01*
X100770986Y-73689294D01*
X100544866Y-73874866D01*
X100359294Y-74100986D01*
X100322405Y-74170000D01*
X99097322Y-74170000D01*
X99059999Y-74166324D01*
X99022676Y-74170000D01*
X99022667Y-74170000D01*
X98911014Y-74180997D01*
X98767753Y-74224454D01*
X98635724Y-74295026D01*
X98519999Y-74389999D01*
X98496201Y-74418997D01*
X97279003Y-75636196D01*
X97249999Y-75659999D01*
X97206851Y-75712576D01*
X97155026Y-75775724D01*
X97086203Y-75904482D01*
X97084454Y-75907754D01*
X97040997Y-76051015D01*
X97030000Y-76162668D01*
X97030000Y-76162678D01*
X97026324Y-76200000D01*
X97030000Y-76237323D01*
X97030001Y-78521928D01*
X96940000Y-78521928D01*
X96815518Y-78534188D01*
X96695820Y-78570498D01*
X96585506Y-78629463D01*
X96488815Y-78708815D01*
X96409463Y-78805506D01*
X96350498Y-78915820D01*
X96314188Y-79035518D01*
X96301928Y-79160000D01*
X96301928Y-80860000D01*
X96314188Y-80984482D01*
X96350498Y-81104180D01*
X96409463Y-81214494D01*
X96488815Y-81311185D01*
X96585506Y-81390537D01*
X96695820Y-81449502D01*
X96764687Y-81470393D01*
X96734866Y-81494866D01*
X96549294Y-81720986D01*
X96411401Y-81978966D01*
X96326487Y-82258889D01*
X96297815Y-82550000D01*
X96326487Y-82841111D01*
X96411401Y-83121034D01*
X96549294Y-83379014D01*
X96734866Y-83605134D01*
X96960986Y-83790706D01*
X97015791Y-83820000D01*
X96960986Y-83849294D01*
X96734866Y-84034866D01*
X96549294Y-84260986D01*
X96411401Y-84518966D01*
X96326487Y-84798889D01*
X96297815Y-85090000D01*
X96326487Y-85381111D01*
X96411401Y-85661034D01*
X96549294Y-85919014D01*
X96734866Y-86145134D01*
X96960986Y-86330706D01*
X97015791Y-86360000D01*
X96960986Y-86389294D01*
X96734866Y-86574866D01*
X96549294Y-86800986D01*
X96411401Y-87058966D01*
X96326487Y-87338889D01*
X96297815Y-87630000D01*
X96326487Y-87921111D01*
X96411401Y-88201034D01*
X96549294Y-88459014D01*
X96734866Y-88685134D01*
X96960986Y-88870706D01*
X97030001Y-88907595D01*
X97030000Y-93761928D01*
X96940000Y-93761928D01*
X96815518Y-93774188D01*
X96695820Y-93810498D01*
X96585506Y-93869463D01*
X96488815Y-93948815D01*
X96409463Y-94045506D01*
X96350498Y-94155820D01*
X96314188Y-94275518D01*
X96301928Y-94400000D01*
X96301928Y-96100000D01*
X96314188Y-96224482D01*
X96350498Y-96344180D01*
X96409463Y-96454494D01*
X96488815Y-96551185D01*
X96585506Y-96630537D01*
X96695820Y-96689502D01*
X96764687Y-96710393D01*
X96734866Y-96734866D01*
X96549294Y-96960986D01*
X96411401Y-97218966D01*
X96326487Y-97498889D01*
X96297815Y-97790000D01*
X96326487Y-98081111D01*
X96411401Y-98361034D01*
X96549294Y-98619014D01*
X96734866Y-98845134D01*
X96960986Y-99030706D01*
X97025523Y-99065201D01*
X96908645Y-99134822D01*
X96692412Y-99329731D01*
X96518359Y-99563080D01*
X96393175Y-99825901D01*
X96348524Y-99973110D01*
X96469845Y-100203000D01*
X97663000Y-100203000D01*
X97663000Y-100183000D01*
X97917000Y-100183000D01*
X97917000Y-100203000D01*
X99110155Y-100203000D01*
X99231476Y-99973110D01*
X99186825Y-99825901D01*
X99061641Y-99563080D01*
X98887588Y-99329731D01*
X98671355Y-99134822D01*
X98554477Y-99065201D01*
X98619014Y-99030706D01*
X98845134Y-98845134D01*
X99030706Y-98619014D01*
X99067595Y-98550000D01*
X102555199Y-98550000D01*
X103380001Y-99374803D01*
X103380000Y-110175198D01*
X98933121Y-114622078D01*
X98845134Y-114514866D01*
X98815313Y-114490393D01*
X98884180Y-114469502D01*
X98994494Y-114410537D01*
X99091185Y-114331185D01*
X99170537Y-114234494D01*
X99229502Y-114124180D01*
X99265812Y-114004482D01*
X99278072Y-113880000D01*
X99275000Y-113315750D01*
X99116250Y-113157000D01*
X97917000Y-113157000D01*
X97917000Y-113177000D01*
X97663000Y-113177000D01*
X97663000Y-113157000D01*
X97643000Y-113157000D01*
X97643000Y-112903000D01*
X97663000Y-112903000D01*
X97663000Y-112883000D01*
X97917000Y-112883000D01*
X97917000Y-112903000D01*
X99116250Y-112903000D01*
X99275000Y-112744250D01*
X99278072Y-112180000D01*
X99265812Y-112055518D01*
X99229502Y-111935820D01*
X99170537Y-111825506D01*
X99091185Y-111728815D01*
X98994494Y-111649463D01*
X98884180Y-111590498D01*
X98764482Y-111554188D01*
X98640000Y-111541928D01*
X98075750Y-111545000D01*
X97917002Y-111703748D01*
X97917002Y-111545000D01*
X97809802Y-111545000D01*
X98301009Y-111053794D01*
X98330001Y-111030001D01*
X98353795Y-111001008D01*
X98353799Y-111001004D01*
X98424973Y-110914277D01*
X98424974Y-110914276D01*
X98495546Y-110782247D01*
X98539003Y-110638986D01*
X98550000Y-110527333D01*
X98550000Y-110527324D01*
X98553676Y-110490001D01*
X98550000Y-110452678D01*
X98550000Y-106687595D01*
X98619014Y-106650706D01*
X98845134Y-106465134D01*
X99030706Y-106239014D01*
X99168599Y-105981034D01*
X99253513Y-105701111D01*
X99282185Y-105410000D01*
X99253513Y-105118889D01*
X99168599Y-104838966D01*
X99030706Y-104580986D01*
X98845134Y-104354866D01*
X98619014Y-104169294D01*
X98564209Y-104140000D01*
X98619014Y-104110706D01*
X98845134Y-103925134D01*
X99030706Y-103699014D01*
X99168599Y-103441034D01*
X99253513Y-103161111D01*
X99282185Y-102870000D01*
X99253513Y-102578889D01*
X99168599Y-102298966D01*
X99030706Y-102040986D01*
X98845134Y-101814866D01*
X98619014Y-101629294D01*
X98554477Y-101594799D01*
X98671355Y-101525178D01*
X98887588Y-101330269D01*
X99061641Y-101096920D01*
X99186825Y-100834099D01*
X99231476Y-100686890D01*
X99110155Y-100457000D01*
X97917000Y-100457000D01*
X97917000Y-100477000D01*
X97663000Y-100477000D01*
X97663000Y-100457000D01*
X96469845Y-100457000D01*
X96348524Y-100686890D01*
X96393175Y-100834099D01*
X96518359Y-101096920D01*
X96692412Y-101330269D01*
X96908645Y-101525178D01*
X97025523Y-101594799D01*
X96960986Y-101629294D01*
X96734866Y-101814866D01*
X96549294Y-102040986D01*
X96514057Y-102106909D01*
X96482676Y-102110000D01*
X96482667Y-102110000D01*
X96371014Y-102120997D01*
X96227753Y-102164454D01*
X96095724Y-102235026D01*
X95979999Y-102329999D01*
X95956201Y-102358997D01*
X94739003Y-103576196D01*
X94709999Y-103599999D01*
X94654871Y-103667174D01*
X94615026Y-103715724D01*
X94544455Y-103847753D01*
X94544454Y-103847754D01*
X94500997Y-103991015D01*
X94490000Y-104102668D01*
X94490000Y-104102678D01*
X94486324Y-104140000D01*
X94490000Y-104177322D01*
X94490001Y-119342667D01*
X94486324Y-119380000D01*
X94490001Y-119417333D01*
X94500998Y-119528986D01*
X94511912Y-119564964D01*
X94544454Y-119672246D01*
X94615026Y-119804276D01*
X94685379Y-119890000D01*
X94710000Y-119920001D01*
X94738998Y-119943799D01*
X95953198Y-121158000D01*
X88392000Y-121158000D01*
X88392000Y-117889872D01*
X89205000Y-117889872D01*
X89205000Y-118330128D01*
X89290890Y-118761925D01*
X89459369Y-119168669D01*
X89703962Y-119534729D01*
X90015271Y-119846038D01*
X90381331Y-120090631D01*
X90788075Y-120259110D01*
X91219872Y-120345000D01*
X91660128Y-120345000D01*
X92091925Y-120259110D01*
X92498669Y-120090631D01*
X92864729Y-119846038D01*
X93176038Y-119534729D01*
X93420631Y-119168669D01*
X93589110Y-118761925D01*
X93675000Y-118330128D01*
X93675000Y-117889872D01*
X93589110Y-117458075D01*
X93420631Y-117051331D01*
X93176038Y-116685271D01*
X92864729Y-116373962D01*
X92498669Y-116129369D01*
X92091925Y-115960890D01*
X91660128Y-115875000D01*
X91219872Y-115875000D01*
X90788075Y-115960890D01*
X90381331Y-116129369D01*
X90015271Y-116373962D01*
X89703962Y-116685271D01*
X89459369Y-117051331D01*
X89290890Y-117458075D01*
X89205000Y-117889872D01*
X88392000Y-117889872D01*
X88392000Y-74709872D01*
X89205000Y-74709872D01*
X89205000Y-75150128D01*
X89290890Y-75581925D01*
X89459369Y-75988669D01*
X89703962Y-76354729D01*
X90015271Y-76666038D01*
X90381331Y-76910631D01*
X90788075Y-77079110D01*
X91219872Y-77165000D01*
X91660128Y-77165000D01*
X92091925Y-77079110D01*
X92498669Y-76910631D01*
X92864729Y-76666038D01*
X93176038Y-76354729D01*
X93420631Y-75988669D01*
X93589110Y-75581925D01*
X93675000Y-75150128D01*
X93675000Y-74709872D01*
X93589110Y-74278075D01*
X93420631Y-73871331D01*
X93176038Y-73505271D01*
X92864729Y-73193962D01*
X92498669Y-72949369D01*
X92091925Y-72780890D01*
X91660128Y-72695000D01*
X91219872Y-72695000D01*
X90788075Y-72780890D01*
X90381331Y-72949369D01*
X90015271Y-73193962D01*
X89703962Y-73505271D01*
X89459369Y-73871331D01*
X89290890Y-74278075D01*
X89205000Y-74709872D01*
X88392000Y-74709872D01*
X88392000Y-71882000D01*
X123698000Y-71882000D01*
X123698000Y-90236788D01*
X123698000Y-90236788D01*
G37*
X123698000Y-90236788D02*
X122680000Y-89218789D01*
X122680000Y-86397322D01*
X122683676Y-86359999D01*
X122680000Y-86322676D01*
X122680000Y-86322667D01*
X122669003Y-86211014D01*
X122625546Y-86067753D01*
X122554974Y-85935724D01*
X122460001Y-85819999D01*
X122431003Y-85796201D01*
X120590010Y-83955209D01*
X120590008Y-81130934D01*
X120593685Y-81093599D01*
X120579012Y-80944613D01*
X120535555Y-80801352D01*
X120464983Y-80669323D01*
X120393808Y-80582596D01*
X120393803Y-80582591D01*
X120370009Y-80553598D01*
X120341016Y-80529804D01*
X115060000Y-75248789D01*
X115060000Y-74709872D01*
X118415000Y-74709872D01*
X118415000Y-75150128D01*
X118500890Y-75581925D01*
X118669369Y-75988669D01*
X118913962Y-76354729D01*
X119225271Y-76666038D01*
X119591331Y-76910631D01*
X119998075Y-77079110D01*
X120429872Y-77165000D01*
X120870128Y-77165000D01*
X121301925Y-77079110D01*
X121708669Y-76910631D01*
X122074729Y-76666038D01*
X122386038Y-76354729D01*
X122630631Y-75988669D01*
X122799110Y-75581925D01*
X122885000Y-75150128D01*
X122885000Y-74709872D01*
X122799110Y-74278075D01*
X122630631Y-73871331D01*
X122386038Y-73505271D01*
X122074729Y-73193962D01*
X121708669Y-72949369D01*
X121301925Y-72780890D01*
X120870128Y-72695000D01*
X120429872Y-72695000D01*
X119998075Y-72780890D01*
X119591331Y-72949369D01*
X119225271Y-73193962D01*
X118913962Y-73505271D01*
X118669369Y-73871331D01*
X118500890Y-74278075D01*
X118415000Y-74709872D01*
X115060000Y-74709872D01*
X115060000Y-73697322D01*
X115063676Y-73659999D01*
X115060000Y-73622676D01*
X115060000Y-73622667D01*
X115049003Y-73511014D01*
X115005546Y-73367753D01*
X114934974Y-73235724D01*
X114840001Y-73119999D01*
X114810997Y-73096196D01*
X114413794Y-72698993D01*
X114389991Y-72669989D01*
X114274266Y-72575016D01*
X114142237Y-72504444D01*
X113998976Y-72460987D01*
X113887323Y-72449990D01*
X113887312Y-72449990D01*
X113849990Y-72446314D01*
X113812668Y-72449990D01*
X111147343Y-72449990D01*
X111110010Y-72446313D01*
X111072677Y-72449990D01*
X110961024Y-72460987D01*
X110817763Y-72504444D01*
X110685734Y-72575016D01*
X110570009Y-72669989D01*
X110546210Y-72698988D01*
X109979002Y-73266197D01*
X109949999Y-73289999D01*
X109894871Y-73357174D01*
X109855026Y-73405724D01*
X109835674Y-73441928D01*
X109640000Y-73441928D01*
X109515518Y-73454188D01*
X109395820Y-73490498D01*
X109285506Y-73549463D01*
X109188815Y-73628815D01*
X109109463Y-73725506D01*
X109050498Y-73835820D01*
X109014188Y-73955518D01*
X109001928Y-74080000D01*
X109001928Y-75780000D01*
X109014188Y-75904482D01*
X109050498Y-76024180D01*
X109109463Y-76134494D01*
X109188815Y-76231185D01*
X109285506Y-76310537D01*
X109395820Y-76369502D01*
X109515518Y-76405812D01*
X109640000Y-76418072D01*
X109730000Y-76418072D01*
X109730001Y-80061956D01*
X109575241Y-80165363D01*
X109375363Y-80365241D01*
X109218320Y-80600273D01*
X109110147Y-80861426D01*
X109055000Y-81138665D01*
X109055000Y-81421335D01*
X109110147Y-81698574D01*
X109218320Y-81959727D01*
X109375363Y-82194759D01*
X109575241Y-82394637D01*
X109810273Y-82551680D01*
X110071426Y-82659853D01*
X110348665Y-82715000D01*
X110631335Y-82715000D01*
X110908574Y-82659853D01*
X111169727Y-82551680D01*
X111404759Y-82394637D01*
X111604637Y-82194759D01*
X111761680Y-81959727D01*
X111869853Y-81698574D01*
X111925000Y-81421335D01*
X111925000Y-81138665D01*
X111869853Y-80861426D01*
X111761680Y-80600273D01*
X111604637Y-80365241D01*
X111404759Y-80165363D01*
X111250000Y-80061957D01*
X111250000Y-76418072D01*
X111340000Y-76418072D01*
X111464482Y-76405812D01*
X111584180Y-76369502D01*
X111694494Y-76310537D01*
X111791185Y-76231185D01*
X111870537Y-76134494D01*
X111929502Y-76024180D01*
X111953966Y-75943534D01*
X112029731Y-76027588D01*
X112263080Y-76201641D01*
X112525901Y-76326825D01*
X112673110Y-76371476D01*
X112903000Y-76250155D01*
X112903000Y-75057000D01*
X112883000Y-75057000D01*
X112883000Y-74803000D01*
X112903000Y-74803000D01*
X112903000Y-74783000D01*
X113157000Y-74783000D01*
X113157000Y-74803000D01*
X113177000Y-74803000D01*
X113177000Y-75057000D01*
X113157000Y-75057000D01*
X113157000Y-76250155D01*
X113386890Y-76371476D01*
X113534099Y-76326825D01*
X113796920Y-76201641D01*
X113834912Y-76173303D01*
X119070009Y-81408401D01*
X119070011Y-84232678D01*
X119066334Y-84270010D01*
X119070011Y-84307342D01*
X119070011Y-84307343D01*
X119071881Y-84326324D01*
X119081008Y-84418995D01*
X119124464Y-84562256D01*
X119195036Y-84694286D01*
X119266211Y-84781012D01*
X119290010Y-84810011D01*
X119319008Y-84833809D01*
X119360199Y-84875000D01*
X119252998Y-84875000D01*
X119252998Y-85039185D01*
X119023109Y-84918519D01*
X118748748Y-85015843D01*
X118498645Y-85164822D01*
X118282412Y-85359731D01*
X118108359Y-85593080D01*
X117983175Y-85855901D01*
X117938524Y-86003110D01*
X118059845Y-86233000D01*
X119253000Y-86233000D01*
X119253000Y-86213000D01*
X119507000Y-86213000D01*
X119507000Y-86233000D01*
X119527000Y-86233000D01*
X119527000Y-86487000D01*
X119507000Y-86487000D01*
X119507000Y-86507000D01*
X119253000Y-86507000D01*
X119253000Y-86487000D01*
X118059845Y-86487000D01*
X117938524Y-86716890D01*
X117983175Y-86864099D01*
X118108359Y-87126920D01*
X118282412Y-87360269D01*
X118366466Y-87436034D01*
X118285820Y-87460498D01*
X118175506Y-87519463D01*
X118078815Y-87598815D01*
X117999463Y-87695506D01*
X117940498Y-87805820D01*
X117904188Y-87925518D01*
X117891928Y-88050000D01*
X117891928Y-89750000D01*
X117904188Y-89874482D01*
X117940498Y-89994180D01*
X117999463Y-90104494D01*
X118078815Y-90201185D01*
X118175506Y-90280537D01*
X118285820Y-90339502D01*
X118405518Y-90375812D01*
X118530000Y-90388072D01*
X120230000Y-90388072D01*
X120354482Y-90375812D01*
X120474180Y-90339502D01*
X120584494Y-90280537D01*
X120681185Y-90201185D01*
X120760537Y-90104494D01*
X120767209Y-90092011D01*
X121160001Y-90484803D01*
X121160000Y-103825197D01*
X119745995Y-105239203D01*
X119671111Y-105216487D01*
X119452950Y-105195000D01*
X119307050Y-105195000D01*
X119088889Y-105216487D01*
X118808966Y-105301401D01*
X118550986Y-105439294D01*
X118324866Y-105624866D01*
X118139294Y-105850986D01*
X118001401Y-106108966D01*
X117916487Y-106388889D01*
X117887815Y-106680000D01*
X117916487Y-106971111D01*
X118001401Y-107251034D01*
X118139294Y-107509014D01*
X118324866Y-107735134D01*
X118354687Y-107759607D01*
X118285820Y-107780498D01*
X118175506Y-107839463D01*
X118078815Y-107918815D01*
X117999463Y-108015506D01*
X117940498Y-108125820D01*
X117904188Y-108245518D01*
X117891928Y-108370000D01*
X117891928Y-110070000D01*
X117904188Y-110194482D01*
X117940498Y-110314180D01*
X117999463Y-110424494D01*
X118078815Y-110521185D01*
X118175506Y-110600537D01*
X118285820Y-110659502D01*
X118405518Y-110695812D01*
X118530000Y-110708072D01*
X118620001Y-110708072D01*
X118620000Y-112715198D01*
X112810198Y-118525001D01*
X110645931Y-118525001D01*
X110683513Y-118401111D01*
X110712185Y-118110000D01*
X110683513Y-117818889D01*
X110598599Y-117538966D01*
X110460706Y-117280986D01*
X110275134Y-117054866D01*
X110049014Y-116869294D01*
X109980000Y-116832405D01*
X109980000Y-105358043D01*
X110134759Y-105254637D01*
X110334637Y-105054759D01*
X110491680Y-104819727D01*
X110599853Y-104558574D01*
X110655000Y-104281335D01*
X110655000Y-103998665D01*
X110599853Y-103721426D01*
X110491680Y-103460273D01*
X110334637Y-103225241D01*
X110134759Y-103025363D01*
X109899727Y-102868320D01*
X109638574Y-102760147D01*
X109361335Y-102705000D01*
X109078665Y-102705000D01*
X108801426Y-102760147D01*
X108540273Y-102868320D01*
X108305241Y-103025363D01*
X108105363Y-103225241D01*
X107948320Y-103460273D01*
X107840147Y-103721426D01*
X107785000Y-103998665D01*
X107785000Y-104281335D01*
X107840147Y-104558574D01*
X107948320Y-104819727D01*
X108105363Y-105054759D01*
X108305241Y-105254637D01*
X108460001Y-105358044D01*
X108460000Y-116832405D01*
X108390986Y-116869294D01*
X108164866Y-117054866D01*
X108140393Y-117084687D01*
X108119502Y-117015820D01*
X108060537Y-116905506D01*
X107981185Y-116808815D01*
X107884494Y-116729463D01*
X107774180Y-116670498D01*
X107654482Y-116634188D01*
X107530000Y-116621928D01*
X105830000Y-116621928D01*
X105705518Y-116634188D01*
X105585820Y-116670498D01*
X105475506Y-116729463D01*
X105378815Y-116808815D01*
X105299463Y-116905506D01*
X105240498Y-117015820D01*
X105204188Y-117135518D01*
X105191928Y-117260000D01*
X105191928Y-117455674D01*
X105155724Y-117475026D01*
X105039999Y-117569999D01*
X105016201Y-117598997D01*
X103995199Y-118620000D01*
X99187114Y-118620000D01*
X99253513Y-118401111D01*
X99282185Y-118110000D01*
X99253513Y-117818889D01*
X99230797Y-117744004D01*
X105921004Y-111053798D01*
X105950001Y-111030001D01*
X106044974Y-110914276D01*
X106115546Y-110782247D01*
X106159003Y-110638986D01*
X106170000Y-110527333D01*
X106170000Y-110527324D01*
X106173676Y-110490001D01*
X106170000Y-110452678D01*
X106170000Y-103184801D01*
X108896114Y-100458688D01*
X109078665Y-100495000D01*
X109361335Y-100495000D01*
X109638574Y-100439853D01*
X109899727Y-100331680D01*
X110134759Y-100174637D01*
X110334637Y-99974759D01*
X110438043Y-99820000D01*
X118102405Y-99820000D01*
X118139294Y-99889014D01*
X118324866Y-100115134D01*
X118550986Y-100300706D01*
X118808966Y-100438599D01*
X119088889Y-100523513D01*
X119307050Y-100545000D01*
X119452950Y-100545000D01*
X119671111Y-100523513D01*
X119951034Y-100438599D01*
X120209014Y-100300706D01*
X120435134Y-100115134D01*
X120620706Y-99889014D01*
X120758599Y-99631034D01*
X120843513Y-99351111D01*
X120872185Y-99060000D01*
X120843513Y-98768889D01*
X120758599Y-98488966D01*
X120620706Y-98230986D01*
X120435134Y-98004866D01*
X120405313Y-97980393D01*
X120474180Y-97959502D01*
X120584494Y-97900537D01*
X120681185Y-97821185D01*
X120760537Y-97724494D01*
X120819502Y-97614180D01*
X120855812Y-97494482D01*
X120868072Y-97370000D01*
X120865000Y-96805750D01*
X120706250Y-96647000D01*
X119507000Y-96647000D01*
X119507000Y-96667000D01*
X119253000Y-96667000D01*
X119253000Y-96647000D01*
X118053750Y-96647000D01*
X117895000Y-96805750D01*
X117891928Y-97370000D01*
X117904188Y-97494482D01*
X117940498Y-97614180D01*
X117999463Y-97724494D01*
X118078815Y-97821185D01*
X118175506Y-97900537D01*
X118285820Y-97959502D01*
X118354687Y-97980393D01*
X118324866Y-98004866D01*
X118139294Y-98230986D01*
X118102405Y-98300000D01*
X110438043Y-98300000D01*
X110334637Y-98145241D01*
X110134759Y-97945363D01*
X109899727Y-97788320D01*
X109638574Y-97680147D01*
X109361335Y-97625000D01*
X109078665Y-97625000D01*
X108896114Y-97661312D01*
X106904802Y-95670000D01*
X117891928Y-95670000D01*
X117895000Y-96234250D01*
X118053750Y-96393000D01*
X119253000Y-96393000D01*
X119253000Y-95193750D01*
X119507000Y-95193750D01*
X119507000Y-96393000D01*
X120706250Y-96393000D01*
X120865000Y-96234250D01*
X120868072Y-95670000D01*
X120855812Y-95545518D01*
X120819502Y-95425820D01*
X120760537Y-95315506D01*
X120681185Y-95218815D01*
X120584494Y-95139463D01*
X120474180Y-95080498D01*
X120354482Y-95044188D01*
X120230000Y-95031928D01*
X119665750Y-95035000D01*
X119507000Y-95193750D01*
X119253000Y-95193750D01*
X119094250Y-95035000D01*
X118530000Y-95031928D01*
X118405518Y-95044188D01*
X118285820Y-95080498D01*
X118175506Y-95139463D01*
X118078815Y-95218815D01*
X117999463Y-95315506D01*
X117940498Y-95425820D01*
X117904188Y-95545518D01*
X117891928Y-95670000D01*
X106904802Y-95670000D01*
X105973804Y-94739003D01*
X105950001Y-94709999D01*
X105834276Y-94615026D01*
X105702247Y-94544454D01*
X105558986Y-94500997D01*
X105447333Y-94490000D01*
X105447322Y-94490000D01*
X105410000Y-94486324D01*
X105372678Y-94490000D01*
X99278072Y-94490000D01*
X99278072Y-94400000D01*
X99265812Y-94275518D01*
X99229502Y-94155820D01*
X99170537Y-94045506D01*
X99091185Y-93948815D01*
X98994494Y-93869463D01*
X98884180Y-93810498D01*
X98764482Y-93774188D01*
X98640000Y-93761928D01*
X98550000Y-93761928D01*
X98550000Y-88907595D01*
X98619014Y-88870706D01*
X98845134Y-88685134D01*
X99030706Y-88459014D01*
X99168599Y-88201034D01*
X99253513Y-87921111D01*
X99282185Y-87630000D01*
X99253513Y-87338889D01*
X99168599Y-87058966D01*
X99030706Y-86800986D01*
X98845134Y-86574866D01*
X98619014Y-86389294D01*
X98564209Y-86360000D01*
X98619014Y-86330706D01*
X98845134Y-86145134D01*
X99030706Y-85919014D01*
X99067595Y-85850000D01*
X108905199Y-85850000D01*
X109091312Y-86036114D01*
X109055000Y-86218665D01*
X109055000Y-86501335D01*
X109110147Y-86778574D01*
X109218320Y-87039727D01*
X109375363Y-87274759D01*
X109575241Y-87474637D01*
X109810273Y-87631680D01*
X110071426Y-87739853D01*
X110348665Y-87795000D01*
X110631335Y-87795000D01*
X110908574Y-87739853D01*
X111169727Y-87631680D01*
X111404759Y-87474637D01*
X111604637Y-87274759D01*
X111761680Y-87039727D01*
X111869853Y-86778574D01*
X111925000Y-86501335D01*
X111925000Y-86218665D01*
X111869853Y-85941426D01*
X111761680Y-85680273D01*
X111604637Y-85445241D01*
X111404759Y-85245363D01*
X111169727Y-85088320D01*
X110908574Y-84980147D01*
X110631335Y-84925000D01*
X110348665Y-84925000D01*
X110166114Y-84961312D01*
X109783804Y-84579003D01*
X109760001Y-84549999D01*
X109644276Y-84455026D01*
X109512247Y-84384454D01*
X109368986Y-84340997D01*
X109257333Y-84330000D01*
X109257322Y-84330000D01*
X109220000Y-84326324D01*
X109182678Y-84330000D01*
X99067595Y-84330000D01*
X99030706Y-84260986D01*
X98845134Y-84034866D01*
X98619014Y-83849294D01*
X98564209Y-83820000D01*
X98619014Y-83790706D01*
X98845134Y-83605134D01*
X99030706Y-83379014D01*
X99067595Y-83310000D01*
X101562678Y-83310000D01*
X101600000Y-83313676D01*
X101637322Y-83310000D01*
X101637333Y-83310000D01*
X101748986Y-83299003D01*
X101892247Y-83255546D01*
X102024276Y-83184974D01*
X102140001Y-83090001D01*
X102163804Y-83060997D01*
X104651009Y-80573794D01*
X104680001Y-80550001D01*
X104703795Y-80521008D01*
X104703799Y-80521004D01*
X104774973Y-80434277D01*
X104774974Y-80434276D01*
X104845546Y-80302247D01*
X104889003Y-80158986D01*
X104900000Y-80047333D01*
X104900000Y-80047324D01*
X104903676Y-80010001D01*
X104900000Y-79972678D01*
X104900000Y-76418072D01*
X104990000Y-76418072D01*
X105114482Y-76405812D01*
X105234180Y-76369502D01*
X105344494Y-76310537D01*
X105441185Y-76231185D01*
X105520537Y-76134494D01*
X105579502Y-76024180D01*
X105615812Y-75904482D01*
X105628072Y-75780000D01*
X105628072Y-74080000D01*
X105615812Y-73955518D01*
X105579502Y-73835820D01*
X105520537Y-73725506D01*
X105441185Y-73628815D01*
X105344494Y-73549463D01*
X105234180Y-73490498D01*
X105114482Y-73454188D01*
X104990000Y-73441928D01*
X103290000Y-73441928D01*
X103165518Y-73454188D01*
X103045820Y-73490498D01*
X102935506Y-73549463D01*
X102838815Y-73628815D01*
X102759463Y-73725506D01*
X102700498Y-73835820D01*
X102679607Y-73904687D01*
X102655134Y-73874866D01*
X102429014Y-73689294D01*
X102171034Y-73551401D01*
X101891111Y-73466487D01*
X101672950Y-73445000D01*
X101527050Y-73445000D01*
X101308889Y-73466487D01*
X101028966Y-73551401D01*
X100770986Y-73689294D01*
X100544866Y-73874866D01*
X100359294Y-74100986D01*
X100322405Y-74170000D01*
X99097322Y-74170000D01*
X99059999Y-74166324D01*
X99022676Y-74170000D01*
X99022667Y-74170000D01*
X98911014Y-74180997D01*
X98767753Y-74224454D01*
X98635724Y-74295026D01*
X98519999Y-74389999D01*
X98496201Y-74418997D01*
X97279003Y-75636196D01*
X97249999Y-75659999D01*
X97206851Y-75712576D01*
X97155026Y-75775724D01*
X97086203Y-75904482D01*
X97084454Y-75907754D01*
X97040997Y-76051015D01*
X97030000Y-76162668D01*
X97030000Y-76162678D01*
X97026324Y-76200000D01*
X97030000Y-76237323D01*
X97030001Y-78521928D01*
X96940000Y-78521928D01*
X96815518Y-78534188D01*
X96695820Y-78570498D01*
X96585506Y-78629463D01*
X96488815Y-78708815D01*
X96409463Y-78805506D01*
X96350498Y-78915820D01*
X96314188Y-79035518D01*
X96301928Y-79160000D01*
X96301928Y-80860000D01*
X96314188Y-80984482D01*
X96350498Y-81104180D01*
X96409463Y-81214494D01*
X96488815Y-81311185D01*
X96585506Y-81390537D01*
X96695820Y-81449502D01*
X96764687Y-81470393D01*
X96734866Y-81494866D01*
X96549294Y-81720986D01*
X96411401Y-81978966D01*
X96326487Y-82258889D01*
X96297815Y-82550000D01*
X96326487Y-82841111D01*
X96411401Y-83121034D01*
X96549294Y-83379014D01*
X96734866Y-83605134D01*
X96960986Y-83790706D01*
X97015791Y-83820000D01*
X96960986Y-83849294D01*
X96734866Y-84034866D01*
X96549294Y-84260986D01*
X96411401Y-84518966D01*
X96326487Y-84798889D01*
X96297815Y-85090000D01*
X96326487Y-85381111D01*
X96411401Y-85661034D01*
X96549294Y-85919014D01*
X96734866Y-86145134D01*
X96960986Y-86330706D01*
X97015791Y-86360000D01*
X96960986Y-86389294D01*
X96734866Y-86574866D01*
X96549294Y-86800986D01*
X96411401Y-87058966D01*
X96326487Y-87338889D01*
X96297815Y-87630000D01*
X96326487Y-87921111D01*
X96411401Y-88201034D01*
X96549294Y-88459014D01*
X96734866Y-88685134D01*
X96960986Y-88870706D01*
X97030001Y-88907595D01*
X97030000Y-93761928D01*
X96940000Y-93761928D01*
X96815518Y-93774188D01*
X96695820Y-93810498D01*
X96585506Y-93869463D01*
X96488815Y-93948815D01*
X96409463Y-94045506D01*
X96350498Y-94155820D01*
X96314188Y-94275518D01*
X96301928Y-94400000D01*
X96301928Y-96100000D01*
X96314188Y-96224482D01*
X96350498Y-96344180D01*
X96409463Y-96454494D01*
X96488815Y-96551185D01*
X96585506Y-96630537D01*
X96695820Y-96689502D01*
X96764687Y-96710393D01*
X96734866Y-96734866D01*
X96549294Y-96960986D01*
X96411401Y-97218966D01*
X96326487Y-97498889D01*
X96297815Y-97790000D01*
X96326487Y-98081111D01*
X96411401Y-98361034D01*
X96549294Y-98619014D01*
X96734866Y-98845134D01*
X96960986Y-99030706D01*
X97025523Y-99065201D01*
X96908645Y-99134822D01*
X96692412Y-99329731D01*
X96518359Y-99563080D01*
X96393175Y-99825901D01*
X96348524Y-99973110D01*
X96469845Y-100203000D01*
X97663000Y-100203000D01*
X97663000Y-100183000D01*
X97917000Y-100183000D01*
X97917000Y-100203000D01*
X99110155Y-100203000D01*
X99231476Y-99973110D01*
X99186825Y-99825901D01*
X99061641Y-99563080D01*
X98887588Y-99329731D01*
X98671355Y-99134822D01*
X98554477Y-99065201D01*
X98619014Y-99030706D01*
X98845134Y-98845134D01*
X99030706Y-98619014D01*
X99067595Y-98550000D01*
X102555199Y-98550000D01*
X103380001Y-99374803D01*
X103380000Y-110175198D01*
X98933121Y-114622078D01*
X98845134Y-114514866D01*
X98815313Y-114490393D01*
X98884180Y-114469502D01*
X98994494Y-114410537D01*
X99091185Y-114331185D01*
X99170537Y-114234494D01*
X99229502Y-114124180D01*
X99265812Y-114004482D01*
X99278072Y-113880000D01*
X99275000Y-113315750D01*
X99116250Y-113157000D01*
X97917000Y-113157000D01*
X97917000Y-113177000D01*
X97663000Y-113177000D01*
X97663000Y-113157000D01*
X97643000Y-113157000D01*
X97643000Y-112903000D01*
X97663000Y-112903000D01*
X97663000Y-112883000D01*
X97917000Y-112883000D01*
X97917000Y-112903000D01*
X99116250Y-112903000D01*
X99275000Y-112744250D01*
X99278072Y-112180000D01*
X99265812Y-112055518D01*
X99229502Y-111935820D01*
X99170537Y-111825506D01*
X99091185Y-111728815D01*
X98994494Y-111649463D01*
X98884180Y-111590498D01*
X98764482Y-111554188D01*
X98640000Y-111541928D01*
X98075750Y-111545000D01*
X97917002Y-111703748D01*
X97917002Y-111545000D01*
X97809802Y-111545000D01*
X98301009Y-111053794D01*
X98330001Y-111030001D01*
X98353795Y-111001008D01*
X98353799Y-111001004D01*
X98424973Y-110914277D01*
X98424974Y-110914276D01*
X98495546Y-110782247D01*
X98539003Y-110638986D01*
X98550000Y-110527333D01*
X98550000Y-110527324D01*
X98553676Y-110490001D01*
X98550000Y-110452678D01*
X98550000Y-106687595D01*
X98619014Y-106650706D01*
X98845134Y-106465134D01*
X99030706Y-106239014D01*
X99168599Y-105981034D01*
X99253513Y-105701111D01*
X99282185Y-105410000D01*
X99253513Y-105118889D01*
X99168599Y-104838966D01*
X99030706Y-104580986D01*
X98845134Y-104354866D01*
X98619014Y-104169294D01*
X98564209Y-104140000D01*
X98619014Y-104110706D01*
X98845134Y-103925134D01*
X99030706Y-103699014D01*
X99168599Y-103441034D01*
X99253513Y-103161111D01*
X99282185Y-102870000D01*
X99253513Y-102578889D01*
X99168599Y-102298966D01*
X99030706Y-102040986D01*
X98845134Y-101814866D01*
X98619014Y-101629294D01*
X98554477Y-101594799D01*
X98671355Y-101525178D01*
X98887588Y-101330269D01*
X99061641Y-101096920D01*
X99186825Y-100834099D01*
X99231476Y-100686890D01*
X99110155Y-100457000D01*
X97917000Y-100457000D01*
X97917000Y-100477000D01*
X97663000Y-100477000D01*
X97663000Y-100457000D01*
X96469845Y-100457000D01*
X96348524Y-100686890D01*
X96393175Y-100834099D01*
X96518359Y-101096920D01*
X96692412Y-101330269D01*
X96908645Y-101525178D01*
X97025523Y-101594799D01*
X96960986Y-101629294D01*
X96734866Y-101814866D01*
X96549294Y-102040986D01*
X96514057Y-102106909D01*
X96482676Y-102110000D01*
X96482667Y-102110000D01*
X96371014Y-102120997D01*
X96227753Y-102164454D01*
X96095724Y-102235026D01*
X95979999Y-102329999D01*
X95956201Y-102358997D01*
X94739003Y-103576196D01*
X94709999Y-103599999D01*
X94654871Y-103667174D01*
X94615026Y-103715724D01*
X94544455Y-103847753D01*
X94544454Y-103847754D01*
X94500997Y-103991015D01*
X94490000Y-104102668D01*
X94490000Y-104102678D01*
X94486324Y-104140000D01*
X94490000Y-104177322D01*
X94490001Y-119342667D01*
X94486324Y-119380000D01*
X94490001Y-119417333D01*
X94500998Y-119528986D01*
X94511912Y-119564964D01*
X94544454Y-119672246D01*
X94615026Y-119804276D01*
X94685379Y-119890000D01*
X94710000Y-119920001D01*
X94738998Y-119943799D01*
X95953198Y-121158000D01*
X88392000Y-121158000D01*
X88392000Y-117889872D01*
X89205000Y-117889872D01*
X89205000Y-118330128D01*
X89290890Y-118761925D01*
X89459369Y-119168669D01*
X89703962Y-119534729D01*
X90015271Y-119846038D01*
X90381331Y-120090631D01*
X90788075Y-120259110D01*
X91219872Y-120345000D01*
X91660128Y-120345000D01*
X92091925Y-120259110D01*
X92498669Y-120090631D01*
X92864729Y-119846038D01*
X93176038Y-119534729D01*
X93420631Y-119168669D01*
X93589110Y-118761925D01*
X93675000Y-118330128D01*
X93675000Y-117889872D01*
X93589110Y-117458075D01*
X93420631Y-117051331D01*
X93176038Y-116685271D01*
X92864729Y-116373962D01*
X92498669Y-116129369D01*
X92091925Y-115960890D01*
X91660128Y-115875000D01*
X91219872Y-115875000D01*
X90788075Y-115960890D01*
X90381331Y-116129369D01*
X90015271Y-116373962D01*
X89703962Y-116685271D01*
X89459369Y-117051331D01*
X89290890Y-117458075D01*
X89205000Y-117889872D01*
X88392000Y-117889872D01*
X88392000Y-74709872D01*
X89205000Y-74709872D01*
X89205000Y-75150128D01*
X89290890Y-75581925D01*
X89459369Y-75988669D01*
X89703962Y-76354729D01*
X90015271Y-76666038D01*
X90381331Y-76910631D01*
X90788075Y-77079110D01*
X91219872Y-77165000D01*
X91660128Y-77165000D01*
X92091925Y-77079110D01*
X92498669Y-76910631D01*
X92864729Y-76666038D01*
X93176038Y-76354729D01*
X93420631Y-75988669D01*
X93589110Y-75581925D01*
X93675000Y-75150128D01*
X93675000Y-74709872D01*
X93589110Y-74278075D01*
X93420631Y-73871331D01*
X93176038Y-73505271D01*
X92864729Y-73193962D01*
X92498669Y-72949369D01*
X92091925Y-72780890D01*
X91660128Y-72695000D01*
X91219872Y-72695000D01*
X90788075Y-72780890D01*
X90381331Y-72949369D01*
X90015271Y-73193962D01*
X89703962Y-73505271D01*
X89459369Y-73871331D01*
X89290890Y-74278075D01*
X89205000Y-74709872D01*
X88392000Y-74709872D01*
X88392000Y-71882000D01*
X123698000Y-71882000D01*
X123698000Y-90236788D01*
G36*
X121160001Y-86674803D02*
G01*
X121160000Y-88335378D01*
X121074276Y-88265026D01*
X120942247Y-88194454D01*
X120868072Y-88171954D01*
X120868072Y-88050000D01*
X120855812Y-87925518D01*
X120819502Y-87805820D01*
X120760537Y-87695506D01*
X120681185Y-87598815D01*
X120584494Y-87519463D01*
X120474180Y-87460498D01*
X120393534Y-87436034D01*
X120477588Y-87360269D01*
X120651641Y-87126920D01*
X120776825Y-86864099D01*
X120821476Y-86716890D01*
X120700156Y-86487002D01*
X120865000Y-86487002D01*
X120865000Y-86379801D01*
X121160001Y-86674803D01*
X121160001Y-86674803D01*
G37*
X121160001Y-86674803D02*
X121160000Y-88335378D01*
X121074276Y-88265026D01*
X120942247Y-88194454D01*
X120868072Y-88171954D01*
X120868072Y-88050000D01*
X120855812Y-87925518D01*
X120819502Y-87805820D01*
X120760537Y-87695506D01*
X120681185Y-87598815D01*
X120584494Y-87519463D01*
X120474180Y-87460498D01*
X120393534Y-87436034D01*
X120477588Y-87360269D01*
X120651641Y-87126920D01*
X120776825Y-86864099D01*
X120821476Y-86716890D01*
X120700156Y-86487002D01*
X120865000Y-86487002D01*
X120865000Y-86379801D01*
X121160001Y-86674803D01*
G36*
X120718197Y-86232998D02*
G01*
X120700156Y-86232998D01*
X120706388Y-86221189D01*
X120718197Y-86232998D01*
X120718197Y-86232998D01*
G37*
X120718197Y-86232998D02*
X120700156Y-86232998D01*
X120706388Y-86221189D01*
X120718197Y-86232998D01*
M02*
